<svg width="196" height="32" viewBox="0 0 196 32" fill="none" xmlns="http://www.w3.org/2000/svg">
<path d="M20.4434 18.9651L14.4703 24.9399L8.48438 18.9651L14.4703 13.0031L20.4434 18.9651ZM21.0471 6.43846L15.0612 12.4005L21.0471 18.3753L27.0202 12.4005L21.0471 6.43846ZM27.6239 13.0159L21.6508 18.9779L27.6239 24.9399L33.6098 18.9779L27.6239 13.0159ZM34.2007 6.45128L28.2276 12.4133L34.2007 18.3881L40.1866 12.4133L34.2007 6.45128ZM40.7903 13.0159L34.8044 18.9907L40.7903 24.9527L46.7634 18.9907L40.7903 13.0159ZM21.0985 6.39999L15.1126 12.362L21.0985 18.3368L27.0715 12.362L21.0985 6.39999ZM27.6753 12.9774L21.7022 18.9394L27.6753 24.9014L33.6612 18.9394L27.6753 12.9774ZM34.2521 6.41281L28.279 12.3748L34.2521 18.3496L40.238 12.3748L34.2521 6.41281ZM40.8417 12.9774L34.8558 18.9522L40.8417 24.9142L46.8148 18.9522L40.8417 12.9774ZM69.6923 20.5806H54.7275V23.5039H69.6923V20.5806ZM68.883 18.4779V8.59247H66.0057V10.8362H58.4269V8.59247H55.5367V18.4779H68.883ZM66.0057 15.6956H58.4269V13.5929H66.0057V15.6956ZM76.7829 8.41297C75.3185 8.41297 74.1881 9.04122 73.366 10.2849C72.5439 11.5414 72.1329 13.4262 72.1329 15.952C72.1329 18.4778 72.5439 20.3754 73.366 21.6191C74.1881 22.8756 75.3314 23.4911 76.7829 23.4911C78.2344 23.4911 79.3648 22.8628 80.1869 21.6191C81.009 20.3626 81.4201 18.4778 81.4201 15.952C81.4201 13.4262 81.009 11.5286 80.1869 10.2849C79.3648 9.0284 78.2344 8.41297 76.7829 8.41297ZM76.7829 11.285C77.3224 11.285 77.7463 11.6568 78.0674 12.3748C78.3886 13.0928 78.5427 14.298 78.5427 15.9648C78.5427 19.0805 77.9518 20.6447 76.7829 20.6447C75.614 20.6447 75.0231 19.0805 75.0231 15.9648C75.0231 12.8492 75.614 11.285 76.7829 11.285ZM85.993 24.068V8.23347H83.0514V24.068H85.993ZM95.7683 13.8236H96.8858V16.9393H99.5962V8.29758H96.8858V11.0029H95.6912C95.4728 10.1054 95.0746 9.42587 94.4709 8.95147C93.8671 8.47708 93.135 8.24629 92.2615 8.24629C91.144 8.24629 90.2576 8.61811 89.6154 9.37458C88.9731 10.1311 88.652 11.2081 88.652 12.5928C88.652 13.9775 88.9731 15.0673 89.6154 15.8366C90.2576 16.6059 91.1311 16.9906 92.2615 16.9906C93.2121 16.9906 93.9828 16.7213 94.5865 16.17C95.1902 15.6315 95.5884 14.8494 95.7554 13.8236H95.7683ZM89.9237 17.6573V24.068H103.347V17.6573H89.9237ZM91.3366 12.58C91.3366 11.9773 91.4137 11.5158 91.5678 11.1952C91.722 10.8747 91.9532 10.7208 92.2615 10.7208C92.8652 10.7208 93.1735 11.3363 93.1735 12.58C93.1735 13.8236 92.8652 14.4647 92.2615 14.4647C91.6578 14.4647 91.3238 13.8365 91.3238 12.58H91.3366ZM92.801 21.5294V20.1831H100.47V21.5294H92.801ZM103.347 8.23347H100.611V17.106H103.347V8.23347ZM113.829 8.28475V14.2468H112.775C112.634 12.2081 112.274 10.7337 111.684 9.79769C111.093 8.87454 110.258 8.40015 109.192 8.40015C107.984 8.40015 107.085 9.00276 106.481 10.1952C105.878 11.3876 105.569 13.3108 105.569 15.952C105.569 18.5932 105.878 20.5165 106.481 21.7089C107.085 22.9013 107.997 23.5039 109.192 23.5039C110.296 23.5039 111.157 23.0038 111.748 22.0166C112.352 21.0293 112.698 19.4395 112.788 17.247H113.816V23.786H116.526V8.27193H113.816L113.829 8.28475ZM109.192 20.6832C108.87 20.6832 108.639 20.3113 108.498 19.5549C108.357 18.8112 108.28 17.606 108.28 15.952C108.28 14.298 108.357 13.1056 108.498 12.3492C108.639 11.6055 108.87 11.2209 109.192 11.2209C109.513 11.2209 109.744 11.5927 109.885 12.3492C110.027 13.1056 110.104 14.298 110.104 15.952C110.104 17.606 110.027 18.7984 109.885 19.5549C109.744 20.2985 109.513 20.6832 109.192 20.6832ZM120.29 8.23347H117.554V24.068H120.29V8.23347ZM122.525 20.5806V23.5039H137.49V20.5806H122.525ZM129.911 14.2468L135.961 18.4137L137.503 15.8751L131.208 11.785C131.594 10.8362 131.864 9.78487 132.018 8.65658L129.038 8.15654C128.858 9.54126 128.472 10.7849 127.869 11.8748C127.265 12.9646 126.507 13.8108 125.621 14.4391C124.734 15.0545 123.797 15.3622 122.82 15.3622V18.3368C124.208 18.324 125.518 17.9522 126.751 17.2342C127.984 16.5162 129.038 15.5161 129.911 14.2596V14.2468ZM154.433 15.6699H148.396V15.1314C151.761 14.9904 153.444 14.2852 153.444 13.0031C153.444 12.2338 152.879 11.6825 151.748 11.3491C150.618 11.0157 149.025 10.8491 146.97 10.8491C144.914 10.8491 143.322 11.0157 142.178 11.3491C141.035 11.6825 140.47 12.2338 140.47 13.0031C140.47 14.2852 142.153 14.9904 145.531 15.1314V15.6699H139.481V17.606H154.446V15.6699H154.433ZM153.893 10.5029V8.57965H148.447V7.59239H145.492V8.57965H140.046V10.5029H153.893ZM143.193 22.3756V21.8371H153.585V18.1445H140.316V19.8113H150.746V20.3498H140.354V24.068H153.713V22.3756H143.18H143.193ZM143.36 13.0159C143.36 12.721 144.568 12.58 146.97 12.58C149.372 12.58 150.579 12.721 150.579 13.0159C150.579 13.3108 149.372 13.4518 146.97 13.4518C144.568 13.4518 143.36 13.3108 143.36 13.0159ZM166.263 10.9901V8.41297H156.912V16.311H163.681C164.375 16.311 165.017 16.2597 165.634 16.17C166.25 16.0674 166.739 15.9392 167.124 15.7597V13.1826C166.751 13.3621 166.25 13.5031 165.634 13.5929C165.017 13.6954 164.375 13.7339 163.694 13.7339H159.841V10.9901H166.263ZM164.118 17.1829C162.063 17.1829 160.432 17.465 159.211 18.0163C157.991 18.5804 157.374 19.4651 157.374 20.7088C157.374 21.9525 157.991 22.85 159.211 23.4141C160.432 23.9783 162.076 24.2604 164.118 24.2604C166.161 24.2604 167.83 23.9783 169.051 23.4141C170.271 22.85 170.888 21.9525 170.888 20.7088C170.888 19.4651 170.271 18.5804 169.038 18.0163C167.805 17.465 166.173 17.1829 164.118 17.1829ZM164.118 19.6703C165.184 19.6703 166.058 19.76 166.726 19.9139C167.394 20.0805 167.728 20.337 167.728 20.696C167.728 21.055 167.394 21.3242 166.739 21.4909C166.083 21.6704 165.21 21.7473 164.131 21.7473C163.052 21.7473 162.204 21.6576 161.536 21.4909C160.868 21.3242 160.547 21.055 160.547 20.696C160.547 20.337 160.881 20.0805 161.536 19.9139C162.191 19.7472 163.065 19.6703 164.131 19.6703H164.118ZM170.733 16.9521V8.23347H167.792V16.9521H170.733ZM173.367 20.5806V23.5039H188.332V20.5806H173.367ZM180.766 14.2468L186.816 18.4137L188.357 15.8751L182.063 11.785C182.448 10.8362 182.718 9.78487 182.872 8.65658L179.892 8.15654C179.712 9.54126 179.327 10.7849 178.723 11.8748C178.12 12.9646 177.362 13.8108 176.475 14.4391C175.589 15.0545 174.651 15.3622 173.675 15.3622V18.3368C175.062 18.324 176.373 17.9522 177.606 17.2342C178.839 16.5162 179.892 15.5161 180.766 14.2596V14.2468Z" fill="white"/>
</svg>
