<svg width="749" height="155" viewBox="0 0 749 155" fill="none" xmlns="http://www.w3.org/2000/svg">
<path d="M52.5031 155L31.8114 93.8761C33.3303 93.1603 34.7632 92.6163 36.1102 92.2442C37.9157 91.7575 39.5493 91.4998 41.0395 91.4998C42.3865 91.4998 43.5615 91.7288 44.4786 92.1296C44.7365 92.2441 44.9944 92.3874 45.2237 92.5591C46.0835 93.2176 46.4847 94.0765 46.4847 95.4221C46.4847 96.3955 46.2268 98.0846 44.9371 100.604C43.6761 103.095 42.9883 105.872 42.9883 108.649C42.9883 110.51 43.2749 112.371 43.8767 114.146C45.3384 118.669 48.4908 122.334 52.7323 124.51C55.2257 125.769 58.0056 126.456 60.8142 126.456C62.677 126.456 64.5398 126.17 66.3453 125.569C70.8734 124.109 74.5418 120.959 76.7198 116.722C77.9808 114.232 78.6686 111.455 78.6686 108.677C78.6686 106.817 78.382 104.956 77.7802 103.152C76.29 98.6285 73.1661 94.964 68.9533 92.8168C67.1478 91.9006 65.7148 90.87 64.8837 89.8393C64.1959 89.009 63.852 88.2074 63.852 87.4058C63.852 86.69 64.1099 85.9457 64.6258 85.2013C65.285 84.2566 66.3453 83.3404 67.6923 82.5102C70.1569 80.9928 73.5101 79.8762 77.1211 79.3322L77.8948 79.2178V79.0174H77.9235C77.9235 79.0174 78.0955 78.8455 78.1241 78.7883C78.1241 78.7883 78.2674 78.6452 78.3534 78.5021L78.4394 78.3588L78.4967 78.2444L78.554 77.9294V78.044L101.739 0.0572275H153.956L144.985 25.3371C144.498 25.8811 144.04 26.3391 143.581 26.654C143.065 27.0262 142.549 27.2839 142.091 27.3698C141.976 27.3698 141.833 27.3984 141.69 27.3984C141.288 27.3984 140.629 27.2839 139.683 26.4536C138.766 25.6234 137.821 24.1919 136.932 22.3596C134.869 18.0652 131.286 14.8301 126.816 13.2841C124.895 12.597 122.918 12.2534 120.883 12.2534C120.195 12.2534 119.45 12.3107 118.648 12.4252C116.699 12.6828 114.865 13.1982 113.174 13.9999C110.709 15.1737 108.531 16.9486 106.812 19.1245C106.353 19.7257 105.952 20.2983 105.608 20.8709C105.006 21.8729 104.462 22.9894 104.06 24.1346C103.888 24.5927 103.745 25.1081 103.602 25.6234C103.401 26.3678 103.258 27.1121 103.172 27.8279C103.086 28.5722 103.029 29.3166 103.029 30.0323C103.029 32.6948 103.602 35.2715 104.777 37.7336C106.84 42.028 110.451 45.2632 114.951 46.8379C116.871 47.525 118.848 47.8398 120.883 47.8398C123.491 47.8398 126.128 47.2386 128.535 46.0935C131.086 44.8624 132.719 44.6048 133.608 44.6048C134.897 44.6048 135.442 45.0342 135.872 45.664C136.33 46.3225 136.617 47.3817 136.674 48.7273C127.704 73.8354 126.701 76.5838 126.615 77.0133V76.8129L101.137 155H52.4458H52.5031ZM60.8142 122.82C58.6074 122.82 56.372 122.277 54.3659 121.274C50.9842 119.557 48.4622 116.608 47.3158 113.001C46.8573 111.569 46.5993 110.109 46.5993 108.62C46.5993 106.416 47.1439 104.211 48.1469 102.207C49.4366 99.6306 50.0957 97.3975 50.0957 95.3934C50.0957 93.3894 49.3793 91.557 47.975 90.2401L47.8317 90.097C47.6884 89.9252 47.5164 89.782 47.3445 89.6389C46.542 89.0377 45.5963 88.6082 44.4213 88.2933C43.4182 88.0356 42.2719 87.8925 41.0109 87.8925C38.2883 87.8925 35.1358 88.5796 31.926 89.8393C31.4961 90.0111 31.0376 90.2115 30.6077 90.4119L0 0.0286574H51.9012L74.5417 76.1258C70.8734 76.8988 67.6636 78.1298 65.2276 79.7331C64.855 79.9908 64.4825 80.2198 64.1672 80.5061C63.1355 81.2791 62.3044 82.1666 61.6452 83.0827C60.9574 84.0561 60.4989 85.1155 60.2983 86.2034C60.241 86.5756 60.1837 86.9477 60.1837 87.3485C60.1837 89.0091 60.8428 90.6409 62.0465 92.1011C63.2215 93.5325 64.941 94.7922 67.2624 95.9946C70.6155 97.7124 73.1375 100.633 74.2838 104.211C74.7424 105.671 75.0003 107.131 75.0003 108.62C75.0003 110.825 74.4558 113.058 73.4527 115.033C71.7332 118.411 68.7813 120.931 65.1703 122.105C63.7087 122.563 62.2184 122.82 60.7568 122.82H60.8142ZM155.474 155L130.283 77.6145C133.837 67.6801 138.967 53.2508 140.085 50.3592L140.371 49.4717C140.371 47.8398 140.171 46.4657 139.741 45.2918L139.683 45.1201C139.483 44.5761 139.225 44.0608 138.91 43.6027C137.821 41.9422 135.929 40.9974 133.722 40.9974H133.636C131.774 40.9974 129.596 41.5986 127.016 42.8297C125.096 43.7458 123.033 44.2326 120.94 44.2326C119.336 44.2326 117.759 43.9463 116.212 43.4309C112.629 42.1712 109.764 39.5946 108.101 36.1877C107.442 34.7849 106.984 33.2675 106.812 31.7215V31.4065H106.783L106.726 30.6336V30.0323C106.726 28.8585 106.869 27.6561 107.184 26.5109C107.299 26.1387 107.413 25.7379 107.557 25.3371C108.818 21.7584 111.397 18.8668 114.836 17.2349C116.728 16.3188 118.848 15.8321 120.969 15.8321C122.574 15.8321 124.15 16.1184 125.698 16.6337C129.252 17.8934 132.117 20.4414 133.751 23.877C134.869 26.196 136.044 27.8851 137.305 29.0589C138.652 30.3186 140.199 30.9771 141.776 30.9771C142.893 30.9771 144.011 30.6622 145.1 30.0037C145.329 29.8606 145.587 29.7174 145.816 29.5456C146.59 28.973 147.364 28.2287 148.08 27.3698L148.195 27.2552L156.191 4.58073L165.792 36.5026L178.144 77.9867V78.1585L178.258 78.273C178.258 78.273 178.316 78.3875 178.344 78.4447C178.43 78.5879 178.545 78.7024 178.602 78.731C178.66 78.7883 178.717 78.8742 178.831 78.9315C179.032 79.0746 179.29 79.2178 179.577 79.275C183.503 79.8762 186.999 81.1073 189.493 82.7392C190.639 83.5122 191.527 84.3424 192.101 85.144C192.616 85.8884 192.903 86.6328 192.903 87.3485C192.903 88.1502 192.559 88.9518 191.871 89.7821C191.011 90.8127 189.636 91.8147 187.773 92.7595C183.56 94.8781 180.408 98.5426 178.946 103.066C178.344 104.87 178.058 106.731 178.058 108.592C178.058 111.34 178.717 114.146 179.978 116.636C182.127 120.874 185.824 124.023 190.352 125.512C192.158 126.113 194.021 126.399 195.883 126.399C198.635 126.399 201.443 125.741 203.937 124.481C207.06 122.906 209.611 120.444 211.359 117.409C211.932 116.407 212.42 115.291 212.821 114.117C213.423 112.285 213.709 110.424 213.709 108.563C213.709 105.815 213.05 103.037 211.789 100.547C210.757 98.5426 210.242 96.739 210.242 95.3362C210.242 94.0192 210.643 93.1604 211.56 92.4733C212.477 91.7861 213.939 91.4139 215.715 91.4139C218.381 91.4139 221.648 92.2728 224.972 93.8187L204.281 154.885H155.589L155.474 155ZM195.798 122.849C194.307 122.849 192.817 122.62 191.384 122.133C187.773 120.96 184.85 118.44 183.13 115.062C182.127 113.086 181.583 110.853 181.583 108.649C181.583 107.132 181.812 105.671 182.299 104.24C183.474 100.633 185.968 97.7124 189.349 96.0233C191.642 94.8495 193.361 93.5897 194.565 92.1296C195.798 90.6695 196.428 89.0376 196.428 87.3771C196.428 85.917 195.941 84.4856 194.995 83.1114C192.731 79.9049 188.06 77.3855 182.127 76.1258L204.768 0H256.669L226.033 90.4691C222.307 88.78 218.725 87.8925 215.601 87.8925C212.993 87.8925 210.872 88.4937 209.296 89.6675C207.49 90.9845 206.516 93.0172 206.545 95.4221C206.545 97.4261 207.204 99.7451 208.493 102.264C209.496 104.24 210.012 106.444 210.012 108.62C210.012 110.109 209.783 111.598 209.296 113.029C208.121 116.637 205.599 119.585 202.217 121.303C200.211 122.305 198.004 122.82 195.798 122.82V122.849ZM287.076 49.3572H316.022L329.033 109.422H329.72L343.591 49.3572H371.849L386.064 109.078H386.752L399.247 49.3572H428.364L403.861 142.289H373.024L358.293 87.1768H357.09L342.359 142.289H311.522L287.019 49.3572H287.076ZM472.327 142.289H443.382H472.327ZM530.39 67.995C523.197 67.995 517.551 71.2588 517.723 76.0399C517.551 79.6472 520.302 82.5388 528.355 84.0847L546.009 87.5203C564.523 91.1276 573.407 99.1439 573.579 112.686C573.407 131.696 555.925 144.006 530.763 144.006C504.196 144.006 488.605 132.211 486.743 113.716H515.516C516.548 120.387 522.366 123.994 530.935 123.994C538.816 123.994 544.118 120.902 544.29 115.778C544.118 111.684 540.507 109.107 532.482 107.389L516.548 104.469C498.206 101.033 488.978 91.8148 489.15 77.6145C488.978 59.1199 504.74 48.1835 529.931 48.1835C555.123 48.1835 570.197 59.6638 571.401 78.1299H544.519C543.659 71.9745 538.185 68.0237 530.476 68.0237H530.39V67.995ZM584.183 96.2523C584.183 67.5083 602.18 48.1548 630.094 48.1548C656.145 48.1548 674.974 64.7599 674.974 95.5652V102.923H612.612V103.438C612.612 115.405 619.978 123.107 631.613 123.107C639.494 123.107 645.312 119.671 647.719 114.203H674.602C671.162 132.354 655.257 143.978 631.097 143.978C601.98 143.978 584.154 125.827 584.154 96.2237H584.183V96.2523ZM648.092 85.9743C647.92 76.0399 640.727 69.0257 630.782 69.0257C620.837 69.0257 613.042 76.2975 612.612 85.9743H648.092ZM689.905 49.3572H717.991V66.1341H718.851C722.29 53.9952 730.486 47.983 740.775 47.983C743.526 47.983 746.593 48.4983 749 49.0136V74.179C746.249 73.3201 741.119 72.8047 737.508 72.8047C726.703 72.8047 718.822 80.3343 718.822 91.4712V142.289H689.877V49.3572H689.905ZM472.327 142.289V49.3572C469.289 48.2693 467.025 45.6927 466.337 42.5434C465.65 39.3942 466.624 36.1018 468.917 33.8401C471.553 31.2634 473.015 27.8851 473.015 24.3637C473.015 16.7196 466.251 10.5071 457.94 10.5071C449.629 10.5071 443.038 16.7196 443.038 24.3637C443.038 27.8851 444.471 31.2347 447.05 33.8114C449.343 36.1018 450.317 39.4514 449.543 42.6007C448.798 45.7785 446.448 48.3265 443.353 49.3572V142.289H472.327Z" fill="#F7F7F7"/>
</svg>
