<svg width="1000" height="177" viewBox="0 0 1000 177" fill="none" xmlns="http://www.w3.org/2000/svg">
<path d="M737.581 128.811C737.312 127.485 737.082 126.195 736.967 124.943C736.814 123.69 736.776 122.658 736.776 121.848C736.354 117.758 735.971 112.894 735.626 107.367C735.281 101.803 734.974 96.4608 734.706 91.3024C734.437 86.1439 734.207 81.6856 734.092 77.8904C733.939 74.1322 733.901 71.8477 733.901 71.0371C733.901 70.5213 733.901 68.9738 734.016 66.4682C734.092 63.9627 734.169 61.0887 734.322 57.92C734.476 54.7512 734.591 51.5088 734.744 48.1927C734.897 44.8765 735.012 41.9657 735.166 39.4602C735.166 37.2126 735.242 34.5965 735.357 31.612C735.511 28.6275 735.626 25.7535 735.779 22.9532C735.932 20.1898 736.047 17.7211 736.201 15.6209C736.354 13.5207 736.392 12.2311 736.392 11.8626C736.392 10.2782 735.549 8.87809 733.824 7.69903C732.099 6.51996 730.412 5.63566 728.764 5.11981C728.074 5.52512 727.231 5.81988 726.273 6.00411C725.314 6.18834 724.356 6.44626 723.398 6.70418C722.439 6.96211 721.519 7.22003 720.599 7.5148C719.718 7.77272 718.99 8.03064 718.415 8.32541C717.993 9.50447 717.533 10.7941 717.073 12.1942C716.575 13.5944 716.153 14.9945 715.731 16.4683C715.31 17.9422 714.965 19.3792 714.696 20.853C714.428 22.3268 714.275 23.6901 714.275 25.0166C713.431 29.1065 712.895 33.7122 712.627 38.8338C712.358 43.9554 712.205 48.7453 712.205 53.2405C712.205 57.7357 712.281 61.8625 712.396 65.1418C712.511 68.4579 712.588 70.3739 712.588 70.8897C712.588 71.295 712.511 72.6583 712.396 74.9428C712.243 77.2641 712.205 80.1381 712.205 83.5647C712.205 86.9914 712.281 90.8971 712.396 95.1712C712.511 99.4821 712.818 103.793 713.24 108.178C713.661 112.673 714.198 117.021 714.888 121.184C715.578 125.348 716.536 129.106 717.763 132.386C718.99 135.554 720.485 138.133 722.209 140.123C723.934 142.113 726.043 143.108 728.496 143.108C729.722 143.108 731.677 142.334 734.399 140.823C737.082 139.313 738.424 137.618 738.424 135.775C738.424 134.965 738.309 133.97 738.117 132.68C737.925 131.428 737.734 130.138 737.581 128.811ZM810.909 32.9016C808.839 31.9805 806.309 31.2067 803.281 30.6172C800.253 30.0276 796.458 29.7329 791.935 29.7329C791.092 29.7329 789.597 29.9539 787.374 30.4329C785.15 30.9119 782.889 31.5752 780.55 32.5332C778.212 33.4543 776.104 34.6334 774.264 35.9967C772.424 37.3968 771.466 39.018 771.466 40.8603C771.466 44.0291 772.002 46.5346 773.114 48.3032C774.226 50.0718 776.564 50.9929 780.129 50.9929C780.819 50.9929 781.777 50.9193 783.004 50.8087C784.23 50.6982 785.495 50.5508 786.722 50.4034C787.833 50.2929 788.907 50.1086 789.903 49.9244C790.938 49.7402 791.667 49.6296 792.088 49.6296C792.51 49.6296 793.66 49.8139 795.615 50.1455C797.531 50.4771 799.601 50.8456 801.825 51.2509C804.163 51.6562 806.386 52.0246 808.418 52.3562C810.488 52.6879 811.944 52.8352 812.749 52.8352C813.554 52.8352 814.359 52.6142 815.126 52.1352C815.892 51.6562 816.544 51.0298 817.081 50.256C817.771 49.5928 818.384 48.8927 818.921 48.1558C819.457 47.4189 819.956 46.7925 820.377 46.2767V39.3128C818.844 38.2443 817.426 37.1757 816.046 36.0335C814.666 34.8913 812.941 33.8965 810.871 32.9385L810.909 32.9016ZM805.121 110.72C804.699 108.325 804.354 106.151 804.086 104.162C803.818 102.172 803.741 100.44 803.895 99.0031C803.895 97.4188 804.01 95.6133 804.201 93.6605C804.393 91.6708 804.584 89.4969 804.738 87.1019C804.891 84.8543 804.853 82.5699 804.623 80.2486C804.431 77.9273 803.971 75.6428 803.281 73.3952C802.745 71.9214 800.981 70.7424 798.03 69.8212C795.078 68.9001 792.97 68.4211 791.743 68.4211C788.983 68.4211 786.798 69.5633 785.227 71.8109C783.655 74.0585 782.429 76.564 781.624 79.3643C780.78 82.1277 780.32 84.8543 780.167 87.5072C780.014 90.1601 779.975 91.8919 779.975 92.6657C779.975 93.7342 779.975 96.8292 780.09 101.988C780.167 107.146 780.627 112.599 781.432 118.274C782.275 124.095 783.579 129.327 785.342 133.97C787.143 138.612 789.75 140.934 793.2 140.934C794.043 140.934 795.653 140.639 798.068 140.049C800.483 139.46 802.438 138.17 803.971 136.181C804.814 135.112 805.658 133.417 806.539 131.022C807.421 128.627 807.881 126.638 807.881 125.053C807.459 122.806 806.999 120.411 806.539 117.905C806.041 115.4 805.619 113.005 805.198 110.757L805.121 110.72ZM905.55 76.3798C903.902 75.8639 902.177 75.4955 900.376 75.2744C898.574 75.0902 896.849 74.9059 895.201 74.7586C893.399 74.7586 891.866 74.7586 890.563 74.8691C889.259 74.9428 888.378 74.9796 887.995 74.9796C887.151 74.9796 886.27 75.0533 885.311 75.1639C884.353 75.3112 883.241 75.3481 882.015 75.3481C880.903 75.4955 879.753 75.5323 878.488 75.5323C877.223 75.5323 875.997 75.4586 874.77 75.3481C874.502 70.1897 874.348 65.7313 874.348 61.9362C874.348 60.0939 874.348 58.2884 874.463 56.5567C874.54 54.8249 874.617 53.1669 874.77 51.5456C875.038 48.3769 875.46 45.245 875.997 42.2236C876.533 39.1654 877.223 35.8124 878.067 32.091C878.488 30.6172 879.025 28.8486 879.715 26.7115C880.405 24.6113 881.171 22.5479 881.976 20.5582C882.82 18.5686 883.663 16.8736 884.545 15.4735C885.426 14.0734 886.384 13.3733 887.343 13.3733C888.033 13.3733 888.761 13.5944 889.528 14.0734C890.294 14.5524 891.023 14.9577 891.674 15.363C892.518 15.8788 893.323 16.3578 894.166 16.7631C895.009 17.1684 895.814 17.3526 896.657 17.3526C897.769 17.3526 898.612 17.1684 899.226 16.7631C899.839 16.3578 900.299 15.842 900.567 15.1787C900.836 14.6629 901.027 13.9628 901.104 13.0785C901.104 13.0048 901.104 12.9311 901.104 12.8206C901.181 11.9732 901.219 11.1257 901.219 10.3519C899.992 8.10433 898.306 6.04096 896.159 4.19867C894.013 2.35637 891.904 1.14046 889.873 0.624614C886.576 -0.296534 883.28 -0.185996 880.06 0.91938C876.802 2.0616 873.965 3.79336 871.473 6.18834C866.222 11.2362 862.312 17.6843 859.706 25.5324C857.099 33.4175 855.297 41.1919 854.339 48.8559C853.496 54.6775 852.998 59.9833 852.768 64.7365C852.691 66.3208 852.653 67.8684 852.653 69.3791C852.653 72.99 852.653 75.606 852.576 77.2641C852.576 78.1484 852.499 78.7748 852.461 79.0327C851.234 79.9538 849.586 80.6171 847.593 81.0224C845.599 81.4277 843.568 81.9435 841.498 82.6067C839.581 83.1226 837.895 83.97 836.553 85.0754C835.173 86.2176 834.483 87.8388 834.483 89.9391C834.483 89.9391 834.483 89.9759 834.483 90.0127C834.483 90.0864 834.483 90.1233 834.483 90.197C834.483 91.7813 835.25 93.4763 836.745 95.2449C838.24 97.0135 840.54 97.9346 843.568 97.9346C845.216 97.9346 848.244 96.7555 852.653 94.3606C852.308 94.5448 852.576 98.3399 852.576 98.7452C852.499 102.393 852.461 106.041 852.384 109.688C852.384 110.204 852.384 110.683 852.384 111.199L852.154 124.39C851.924 132.128 851.388 139.828 849.778 147.419C848.551 153.167 847.094 158.03 843.223 162.489C839.735 166.542 837.895 171.737 841.115 174.721C842.303 175.79 844.143 176.601 846.826 176.932C857.559 178.222 870.247 159.504 872.93 151.177C874.042 147.75 874.502 144.508 874.732 141.192C874.847 140.418 874.962 139.718 874.962 139.202V92.0024C877.453 91.3392 880.175 90.7865 883.203 90.3075C886.231 89.8285 889.681 89.4232 893.514 89.0179H895.278C896.044 89.0179 896.887 89.0916 897.846 89.2021C898.689 89.3495 899.571 89.4232 900.529 89.4969C901.487 89.5706 902.445 89.6074 903.404 89.6074C905.205 87.6178 906.585 85.8492 907.544 84.2648C908.387 82.6804 908.77 81.1697 908.77 79.8064C908.77 79.8064 908.77 79.7696 908.77 79.7327C908.77 79.659 908.77 79.6222 908.77 79.5485C908.77 78.1484 907.659 77.0798 905.474 76.2692L905.55 76.3798ZM998.812 117.795C998.467 117.721 998.007 117.573 997.47 117.279C996.933 117.168 996.32 117.021 995.707 116.873C995.094 116.763 994.289 116.689 993.33 116.689C992.64 116.689 990.8 116.984 987.772 117.573C984.744 118.163 981.486 118.716 978.074 119.268C974.624 119.932 971.481 120.521 968.568 121.074C965.655 121.627 964.006 121.884 963.623 121.884C962.396 121.884 961.093 121.884 959.713 121.995C958.333 122.069 957.107 121.811 955.995 121.295C954.883 120.779 954.002 119.747 953.312 118.2C952.622 116.689 952.277 114.331 952.277 111.162V107.772C952.277 106.446 952.354 105.12 952.469 103.793C952.737 102.614 953.159 101.361 953.695 100.109C954.232 98.8558 955.152 97.7504 956.378 96.8292C957.337 96.6818 958.525 96.5713 959.905 96.4239C961.285 96.2766 962.665 96.166 964.045 96.0186C965.578 95.8712 966.958 95.687 968.3 95.4291C969.603 95.1712 970.753 94.7659 971.711 94.25C978.304 91.0813 983.057 87.2861 985.856 82.8278C988.692 78.4063 990.072 72.4741 990.072 65.0681C990.072 64.5522 989.765 63.4469 989.152 61.7888C988.539 60.1307 987.734 58.3621 986.776 56.5198C985.664 54.7881 984.399 53.2037 982.942 51.7667C981.486 50.2929 979.952 49.5928 978.304 49.5928C973.474 49.5928 969.258 50.514 965.616 52.3562C961.975 54.1985 958.908 56.1882 956.417 58.3253C953.81 60.5729 951.817 62.5994 950.514 64.368C949.21 66.1735 948.482 67.0578 948.329 67.0578C948.175 67.0578 948.06 66.9841 947.907 66.8735C947.754 66.7261 947.562 66.6156 947.294 66.4682C947.025 66.3208 946.719 66.2103 946.374 66.0629C946.029 65.9155 945.569 65.8787 945.032 65.8787C943.499 65.8787 941.621 66.2103 939.359 66.8735C937.097 67.5368 935.948 68.5316 935.948 69.858C934.989 73.5795 934.069 77.8168 933.149 82.6804C932.268 87.5072 931.386 92.113 930.581 96.4976C929.891 100.993 929.354 104.935 928.933 108.325C928.511 111.715 928.32 113.668 928.32 114.184C928.32 118.826 929.201 122.658 931.003 125.716C932.804 128.775 935.219 131.133 938.247 132.865C941.122 134.596 944.419 135.775 948.06 136.439C951.702 137.102 955.343 137.433 958.908 137.433C959.33 137.433 961.4 136.954 965.118 136.033C968.836 135.112 972.976 133.97 977.499 132.643C982.061 131.317 986.431 129.917 990.724 128.48C994.979 127.043 998.083 125.753 1000 124.722V117.979C999.578 117.979 999.195 117.979 998.85 117.868L998.812 117.795ZM959.752 81.6487C961.208 79.8433 962.895 77.9641 964.811 75.9745C966.613 74.1322 968.376 72.3636 970.101 70.7055C971.826 69.0474 973.014 67.9421 973.704 67.4262H975.353V70.816C975.353 72.9531 974.433 74.8691 972.554 76.6745C970.676 78.48 968.645 79.9538 966.46 81.1329C964.121 82.4593 961.17 83.8595 957.567 85.2965C957.567 84.6332 958.295 83.4173 959.752 81.6119V81.6487ZM136.576 49.0033C130.175 38.6496 121.397 30.5803 110.281 24.7587C99.1644 18.937 86.7449 16.0262 73.0987 16.0262C59.4526 16.0262 47.2631 18.937 36.1469 24.7587C25.0307 30.5803 16.2144 38.6864 9.73628 49.0033C3.2582 59.357 0 71.0371 0 84.0806C0 89.3495 0.536645 94.3974 1.5716 99.2242C7.74302 94.6185 13.6461 91.5603 19.8559 89.6074C21.7725 89.0179 23.7274 88.5389 25.6823 88.2073C28.9788 87.6546 32.3137 87.5072 35.7636 87.6915C35.6869 86.5124 35.6486 85.2965 35.6486 84.0437C35.6486 72.253 39.0218 62.931 45.7682 56.1145C52.5146 49.298 61.6375 45.8714 73.0987 45.8714C84.56 45.8714 93.6829 49.3349 100.429 56.2251C107.176 63.1152 110.549 72.4004 110.549 84.0437C110.549 92.9604 108.556 100.477 104.569 106.593C103.343 108.473 101.924 110.241 100.314 111.862C99.816 112.341 99.3177 112.82 98.8194 113.299C99.6627 113.705 101.043 114.331 102.844 114.994C106.256 116.247 111.201 117.684 117.18 118.237C126.687 119.121 133.165 118.016 137.841 116.91C143.438 107.072 146.197 96.1292 146.197 84.0069C146.197 70.9634 142.978 59.2833 136.576 48.9296V49.0033ZM229.991 43.5501C242.334 43.5501 252.722 48.3032 261.001 57.441L279.324 41.1919C267.709 27.6327 249.923 20.1898 228.611 20.1898C190.202 20.1898 161.684 45.7608 161.684 81.5014C161.684 117.242 190.202 142.813 228.458 142.813C249.962 142.813 267.748 135.37 279.362 121.663L261.04 105.414C252.76 114.736 242.372 119.453 230.029 119.453C206.953 119.453 190.586 103.867 190.586 81.5382C190.586 59.2096 206.953 43.6238 230.029 43.6238L229.991 43.5501ZM326.855 91.3024H384.085V69.9686H326.855V44.2133H391.674V22.2163H298.49V140.75H393.974V118.753H326.855V91.3392V91.3024ZM455.497 22.2163L400.529 140.75H429.776L440.701 115.363H497.968L508.893 140.75H538.83L483.671 22.2163H455.497ZM449.824 94.5079L469.373 49.1138L488.922 94.5079H449.824ZM636.576 22.2163V94.1763L575.284 22.2163H551.671V140.75H579.845V68.7895L641.329 140.75H664.75V22.2163H636.576ZM40.8234 147.492C55.6194 153.572 71.1055 154.788 86.9365 152.688C95.9828 151.509 104.531 148.745 112.887 144.324C111.661 143.808 110.856 144.139 110.051 144.213C109.207 144.287 108.402 144.397 107.559 144.397C95.9445 144.545 85.1733 141.523 75.092 136.07C67.464 131.943 60.1809 127.264 52.4762 123.248C39.1368 116.284 25.069 114.478 10.2729 117.352C8.39466 117.721 8.12634 118.31 9.0463 119.968C16.291 132.754 26.9856 141.781 40.8234 147.492ZM57.3444 116.91C63.6308 120.484 69.8405 124.095 74.5554 126.859C85.2883 133.122 95.5228 136.181 105.872 136.181C109.821 136.181 113.807 135.738 117.755 134.817C124.195 133.38 130.443 131.133 136.883 128.001C137.305 127.78 137.496 127.301 137.305 126.895C137.151 126.564 136.806 126.343 136.461 126.343C136.385 126.343 136.27 126.343 136.193 126.38C131.018 127.853 125.767 128.627 120.63 128.627C114.344 128.627 107.981 127.522 101.733 125.311C93.8746 122.548 86.8599 118.384 81.5701 115.031C80.6118 114.442 79.6535 113.815 78.7335 113.226C72.3321 109.136 65.739 104.935 58.6093 101.73C51.5563 98.561 44.8482 97.0135 38.1401 97.0135C36.1469 97.0135 34.1536 97.1609 32.1604 97.4188C24.5324 98.4873 17.096 101.177 8.70132 105.93C8.47133 106.041 8.24134 106.151 8.01135 106.299C7.16805 106.704 6.20975 107.183 5.55811 108.178C5.40478 108.399 5.36645 108.657 5.44312 108.915C5.51978 109.173 5.71144 109.357 5.97976 109.467C6.05642 109.467 6.13309 109.541 6.17142 109.541C6.28641 109.615 6.47807 109.688 6.70807 109.688C6.7464 109.688 6.82306 109.688 6.86139 109.688C7.32137 109.615 7.89635 109.504 8.47133 109.431C13.6078 108.436 18.6676 107.92 23.5741 107.92C35.4952 107.92 46.8415 110.941 57.3444 116.947V116.91Z" fill="#F7F7F7"/>
</svg>
