<svg width="180" height="180" viewBox="0 0 180 180" fill="none" xmlns="http://www.w3.org/2000/svg">
<path d="M148.269 0H31.7428C14.2229 0 0 14.2229 0 31.7428V148.257C0 165.801 14.2229 180 31.7428 180H148.281C165.801 180 180 165.801 180 148.257V31.7548C180 14.2349 165.801 0.0120309 148.281 0.0120309L148.269 0ZM102.328 152.902C88.2252 154.851 74.4355 153.744 61.2474 148.113C48.9257 142.842 39.3716 134.443 32.922 122.603C32.1038 121.063 32.3444 120.509 34.029 120.172C47.2171 117.501 59.7072 119.186 71.6198 125.635C78.4785 129.342 84.9522 133.722 91.7388 137.524C100.739 142.554 110.318 145.369 120.69 145.225C121.412 145.225 122.158 145.129 122.904 145.057C123.626 144.984 124.348 144.696 125.431 145.177C117.995 149.268 110.366 151.795 102.328 152.902ZM146.849 130.088C141.122 132.975 135.563 135.045 129.811 136.369C126.297 137.211 122.711 137.62 119.222 137.62C109.981 137.62 100.86 134.804 91.3056 129.005C87.0941 126.454 81.5589 123.109 75.9757 119.787C66.59 114.228 56.4824 111.413 45.8694 111.413C41.5135 111.413 36.9891 111.894 32.4166 112.832C31.9112 112.929 31.4058 113.001 30.9967 113.073C30.9486 113.097 30.8764 113.097 30.8523 113.097C30.6357 113.097 30.4673 113.025 30.347 112.953C30.3229 112.953 30.2748 112.929 30.2026 112.881C29.9619 112.784 29.7934 112.616 29.7212 112.375C29.649 112.159 29.6972 111.894 29.8175 111.701C30.4191 110.763 31.2615 110.33 32.0316 109.945C32.2241 109.848 32.4407 109.752 32.6332 109.632C40.1177 105.228 46.7598 102.701 53.5223 101.738C55.3032 101.473 57.084 101.353 58.8649 101.353C64.8332 101.353 70.8015 102.773 77.1068 105.709C83.4601 108.693 89.3562 112.592 95.0358 116.37C95.8781 116.948 96.7444 117.501 97.5867 118.055C102.256 121.135 108.537 125.01 115.54 127.561C121.123 129.606 126.803 130.641 132.386 130.641C136.982 130.641 141.651 129.943 146.248 128.571C146.32 128.547 146.416 128.547 146.488 128.547C146.825 128.547 147.114 128.74 147.234 129.053C147.403 129.438 147.234 129.895 146.849 130.088ZM147.668 119.836C143.528 120.846 137.753 121.881 129.281 121.063C123.939 120.533 119.535 119.21 116.502 118.031C114.914 117.429 113.687 116.851 112.941 116.466C113.398 116.033 113.831 115.6 114.264 115.143C115.708 113.627 116.984 111.99 118.067 110.233C121.628 104.554 123.385 97.5988 123.385 89.3442C123.385 78.5387 120.377 69.9231 114.361 63.5457C108.344 57.1442 100.21 53.9434 90.006 53.9434C79.8021 53.9434 71.6679 57.1201 65.6514 63.4494C59.6109 69.7787 56.6027 78.4183 56.6027 89.3442C56.6027 90.4753 56.6508 91.6064 56.723 92.7134C53.6426 92.5209 50.6585 92.6653 47.7465 93.1707C45.9897 93.4594 44.257 93.8926 42.5483 94.4462C37.0132 96.2511 31.7668 99.1149 26.2798 103.375C25.3172 98.8983 24.86 94.2055 24.86 89.3442C24.86 77.2632 27.7478 66.4095 33.5236 56.8313C39.2994 47.2291 47.1449 39.7446 57.06 34.3298C66.9751 28.915 77.9491 26.2197 90.006 26.2197C102.063 26.2197 113.205 28.915 123.121 34.3298C133.036 39.7446 140.857 47.2291 146.561 56.8313C152.288 66.4095 155.152 77.2632 155.152 89.3442C155.152 100.559 152.649 110.715 147.668 119.836Z" fill="#F7F7F7"/>
</svg>
