<svg width="200" height="180" viewBox="0 0 200 180" fill="none" xmlns="http://www.w3.org/2000/svg">
<path d="M40.8865 149.94L24.758 102.248C25.9332 101.7 27.0636 101.274 28.1157 100.972C29.5148 100.581 30.802 100.39 31.966 100.39C33.0181 100.39 33.9471 100.558 34.641 100.883C34.8537 100.983 35.0439 101.095 35.223 101.218C35.9058 101.733 36.208 102.405 36.2191 103.446C36.2191 104.207 36.0065 105.528 35.0104 107.486C34.0254 109.423 33.4994 111.594 33.4994 113.765C33.4994 115.209 33.7344 116.664 34.1933 118.063C35.3461 121.589 37.7973 124.465 41.0991 126.144C43.0466 127.129 45.218 127.655 47.3893 127.655C48.8444 127.655 50.2994 127.42 51.6985 126.973C55.2241 125.831 58.0894 123.369 59.7795 120.056C60.7645 118.119 61.2905 115.948 61.2905 113.765C61.2905 112.31 61.0555 110.866 60.6078 109.456C59.4549 105.919 57.015 103.054 53.7243 101.398C52.3141 100.681 51.206 99.8754 50.5457 99.0807C50.0084 98.4315 49.751 97.8048 49.751 97.178C49.751 96.6184 49.9524 96.0475 50.3666 95.4655C50.8814 94.7268 51.7097 93.9993 52.7506 93.3725C54.6757 92.1861 57.2836 91.3131 60.1041 90.8878L60.6973 90.7982V90.6303C60.6973 90.6303 60.7197 90.6191 60.7309 90.6079C60.8204 90.5408 60.8652 90.4848 60.8988 90.4624H60.91C60.91 90.4624 61.0219 90.3393 61.089 90.2498L61.1562 90.1267V90.1043L61.2233 90.0483L61.2793 89.8133L61.2569 89.8916L79.3329 29.0488H120.029L113.034 48.7589C112.653 49.1843 112.284 49.5312 111.926 49.7887C111.523 50.0909 111.131 50.2699 110.75 50.3483C110.65 50.3707 110.549 50.3819 110.437 50.3819C110.124 50.3819 109.609 50.3035 108.87 49.632C108.165 48.9716 107.426 47.8635 106.732 46.4421C105.132 43.0955 102.322 40.5772 98.8416 39.3572C97.353 38.8311 95.7972 38.5625 94.2302 38.5625C93.6818 38.5625 93.1222 38.6073 92.4842 38.6856C90.9732 38.8759 89.5405 39.3012 88.231 39.928C86.3171 40.8458 84.6046 42.2337 83.2727 43.9349C82.9146 44.3938 82.6012 44.8415 82.3325 45.3004C81.8513 46.0839 81.4483 46.9457 81.1349 47.8411C81.0006 48.1993 80.8887 48.591 80.788 48.994C80.6425 49.5648 80.5305 50.1468 80.4522 50.7176C80.3738 51.2997 80.3403 51.8817 80.3403 52.4525C80.3403 54.5343 80.7991 56.549 81.6946 58.4517C83.3063 61.8095 86.1156 64.3278 89.6189 65.559C91.1075 66.085 92.6633 66.3537 94.2414 66.3537C96.2673 66.3537 98.3379 65.8836 100.196 64.9994C102.188 64.0368 103.453 63.8353 104.158 63.8353C105.154 63.8465 105.591 64.1711 105.926 64.6524C106.273 65.156 106.497 66.0067 106.553 67.0364C99.5579 86.6234 98.7856 88.7724 98.7073 89.0969L98.7296 88.9514L78.8628 149.951H40.92L40.8865 149.94ZM50.8143 124.298C53.6236 123.38 55.9069 121.432 57.2612 118.791C58.0447 117.235 58.4588 115.5 58.4588 113.788C58.4588 112.635 58.2685 111.482 57.9104 110.352C57.0037 107.542 55.0563 105.259 52.426 103.927C50.6128 103.009 49.2921 102.013 48.3631 100.894C47.4117 99.7635 46.9081 98.4763 46.9081 97.1892C46.9081 96.887 46.9304 96.596 46.9864 96.305C47.1431 95.4431 47.4901 94.6261 48.0385 93.865C48.5422 93.1487 49.2025 92.4659 49.9972 91.8503C50.2546 91.6377 50.5345 91.4474 50.8255 91.2571C52.7394 89.9924 55.2353 89.0298 58.0894 88.4366L40.4388 29.0712H0L23.8514 99.5732C24.1983 99.4165 24.5453 99.2598 24.8811 99.1143C27.377 98.1181 29.8282 97.5921 31.9548 97.5921C32.9285 97.5921 33.8239 97.704 34.6186 97.9055C35.514 98.1517 36.2639 98.4987 36.8907 98.9688C37.0362 99.0695 37.1593 99.1926 37.2713 99.327L37.372 99.4389C38.4577 100.48 39.0285 101.868 39.0173 103.468C39.0173 105.046 38.5136 106.781 37.5063 108.796C36.7228 110.352 36.3087 112.075 36.3087 113.788C36.3087 114.941 36.499 116.093 36.8571 117.213C37.7749 120.022 39.7224 122.316 42.3639 123.66C43.9197 124.454 45.6545 124.868 47.3781 124.868C48.5198 124.868 49.6726 124.678 50.8143 124.32V124.298ZM159.091 149.94L175.22 102.293C172.623 101.084 170.082 100.424 168 100.424C166.624 100.424 165.471 100.715 164.766 101.252C164.072 101.778 163.77 102.45 163.747 103.479C163.747 104.565 164.173 105.964 164.967 107.531C165.952 109.467 166.467 111.628 166.467 113.777C166.467 115.232 166.232 116.687 165.773 118.108C165.46 119.026 165.079 119.888 164.631 120.671C163.288 123.044 161.285 124.958 158.845 126.189C156.886 127.174 154.715 127.689 152.566 127.689C151.111 127.689 149.656 127.454 148.246 126.995C144.72 125.842 141.855 123.391 140.165 120.078C139.18 118.119 138.654 115.948 138.654 113.788C138.654 112.344 138.889 110.889 139.347 109.479C140.5 105.953 142.94 103.099 146.231 101.431C147.664 100.704 148.738 99.9202 149.421 99.1031C149.958 98.4539 150.227 97.8271 150.227 97.1892C150.227 96.6407 150.014 96.0587 149.611 95.4767C149.175 94.8499 148.481 94.2008 147.585 93.6076C145.649 92.3204 142.918 91.3578 139.862 90.899C139.65 90.8542 139.437 90.7646 139.28 90.6415C139.191 90.5856 139.135 90.5184 139.09 90.4736C139.045 90.4401 138.956 90.3617 138.889 90.2386C138.855 90.1826 138.833 90.1379 138.821 90.0931L138.754 90.0147L138.732 89.8692L129.106 57.5115L121.641 32.5969L115.418 50.2811L115.339 50.3819C114.769 51.0646 114.175 51.6354 113.571 52.0831C113.392 52.2174 113.213 52.3294 113.023 52.4413C112.172 52.945 111.299 53.2024 110.426 53.2024C109.217 53.2024 108.008 52.6875 106.956 51.7138C105.96 50.796 105.053 49.4641 104.18 47.6621C102.904 44.9982 100.677 42.9948 97.9014 42.021C96.7038 41.5957 95.4614 41.383 94.219 41.383C92.5737 41.383 90.9172 41.7636 89.4398 42.4687C86.776 43.7447 84.7613 45.9944 83.7764 48.7813C83.6645 49.0835 83.5749 49.3969 83.4966 49.6879C83.2615 50.6057 83.1496 51.5235 83.1496 52.4413C83.1496 52.598 83.1608 52.7435 83.172 52.9002C83.172 52.9002 83.2056 53.4486 83.2056 53.471L83.2279 53.4934V53.7396C83.3734 54.9484 83.7092 56.1236 84.2353 57.2317C85.5112 59.8955 87.7497 61.9102 90.5479 62.8951C91.7455 63.3205 92.9767 63.5331 94.2302 63.5331C95.8755 63.5331 97.4761 63.1638 98.9759 62.4474C100.991 61.4849 102.681 61.0148 104.136 61.0148H104.203C105.904 61.0148 107.381 61.7647 108.232 63.0518C108.467 63.41 108.68 63.8017 108.837 64.2271L108.881 64.3502C109.206 65.2568 109.374 66.3313 109.363 67.596V68.3012H109.139C108.288 70.5621 104.27 81.7994 101.505 89.5558L121.137 149.917H159.091V149.94ZM157.569 123.671C160.21 122.328 162.169 120.033 163.087 117.224C163.456 116.116 163.635 114.952 163.635 113.788C163.635 112.075 163.221 110.363 162.449 108.818C161.442 106.848 160.927 105.058 160.927 103.491C160.927 101.621 161.677 100.021 163.076 99.0024C164.318 98.0846 165.975 97.6257 168 97.6257C170.429 97.6257 173.227 98.3196 176.126 99.6292L200 29.06H159.561L141.911 88.4366C146.533 89.4103 150.16 91.369 151.939 93.8762C152.689 94.9395 153.058 96.0587 153.058 97.2004C153.058 98.4875 152.555 99.7747 151.603 100.916C150.652 102.047 149.331 103.032 147.529 103.949C144.899 105.281 142.951 107.565 142.034 110.363C141.664 111.471 141.485 112.624 141.485 113.799C141.485 115.534 141.899 117.257 142.683 118.813C144.026 121.455 146.309 123.413 149.119 124.331C150.227 124.7 151.391 124.88 152.555 124.88C154.278 124.88 156.002 124.465 157.558 123.693L157.569 123.671Z" fill="#F7F7F7"/>
</svg>
