<svg width="528" height="221" viewBox="0 0 528 221" fill="none" xmlns="http://www.w3.org/2000/svg">
<path d="M169.981 25.2535C185.879 34.4951 201.776 43.7367 217.7 53.004V167.97L197.585 179.683V64.8456L182.3 56.0159V188.59L170.006 195.747L162.185 200.303V44.3802L146.901 35.499V209.184L126.581 221V0.0515354L146.901 11.8673C151.987 14.8277 157.099 17.7881 162.185 20.7485L170.006 25.305V25.2535H169.981ZM91.0032 209.236L111.118 220.949V0L91.0032 11.7128V209.236ZM20 52.9783V106.857L55.6038 126.576V164.984L40.3195 156.103V135.663L20 124.131V167.919C31.8594 174.818 75.7189 200.329 75.7189 200.329V113.782L40.3195 94.0633V64.7683L55.6038 55.8872V85.0792L75.7189 96.4831V20.5683L55.6038 32.2811C43.7444 39.1802 31.885 46.0793 20 52.9783ZM308.69 72.5683C297.061 72.5683 289.955 78.2831 289.955 86.0059C289.955 94.7326 299.029 98.311 307.565 100.293L317.227 102.867C332.562 106.446 347.335 114.58 347.335 132.6C347.335 150.62 333.15 163.208 308.434 163.208C283.719 163.208 269.406 151.624 268.537 131.184H286.709C287.553 142.048 296.652 147.351 308.281 147.351C319.911 147.351 328.856 141.353 328.856 132.471C328.856 124.311 321.342 120.887 310.249 118.03L298.62 115.018C281.725 110.59 271.22 102.018 271.22 87.1386C271.22 68.8356 287.399 56.6852 308.971 56.6852C330.543 56.6852 345.597 69.1188 345.879 86.5723H328.141C327.297 77.7169 319.757 72.5683 308.69 72.5683ZM381.099 161.663H362.645V58.1526H381.099V161.663ZM422.965 58.1268L453.482 133.347H454.76L485.278 58.1268H508V161.638H490.262V90.4337H489.265L460.741 161.354H447.527L419.003 90.1506H418.16V161.638H400.268V58.1268H422.99H422.965Z" fill="#F7F7F7"/>
</svg>
